<svg xmlns="http://www.w3.org/2000/svg" viewBox="0 0 64 64" fill="none">
  <defs>
    <linearGradient id="g1" x1="0" y1="0" x2="1" y2="1">
      <stop offset="0%" stop-color="#60A5FA"/>
      <stop offset="100%" stop-color="#1D4ED8"/>
    </linearGradient>
    <linearGradient id="g2" x1="0" y1="0" x2="0" y2="1">
      <stop offset="0%" stop-color="#ffffff" stop-opacity="0.18"/>
      <stop offset="100%" stop-color="#ffffff" stop-opacity="0"/>
    </linearGradient>
  </defs>

  <!-- Shield body -->
  <path
    d="M32 3L7 13.5V30c0 15.5 11 28.5 25 32 14-3.5 25-16.5 25-32V13.5L32 3z"
    fill="url(#g1)"
  />

  <!-- Gloss overlay -->
  <path
    d="M32 3L7 13.5V30c0 4 0.5 7.8 1.5 11.2C16 36 24 31 32 31s16 5 23.5 10.2c1-3.4 1.5-7.2 1.5-11.2V13.5L32 3z"
    fill="url(#g2)"
  />

  <!-- Checkmark -->
  <path
    d="M21 32.5l8 8.5 14-16"
    stroke="white"
    stroke-width="4"
    stroke-linecap="round"
    stroke-linejoin="round"
  />
</svg>
